<?xml version="1.0" encoding="iso-8859-1"?>
<!-- Generator: Adobe Illustrator 23.0.2, SVG Export Plug-In . SVG Version: 6.00 Build 0)  -->
<svg version="1.1" id="Layer_1" xmlns="http://www.w3.org/2000/svg" xmlns:xlink="http://www.w3.org/1999/xlink" x="0px" y="0px"
	 viewBox="0 0 22 22" style="enable-background:new 0 0 22 22;" xml:space="preserve">
<g id="arrow-expand-7_2_">
	<polygon points="6,1 6,0 0,0 0,6 1,6 1,1.707 8.646,9.354 9.354,8.646 1.707,1 	"/>
	<polygon points="16,1 20.293,1 12.646,8.646 13.354,9.354 21,1.707 21,6 22,6 22,0 16,0 	"/>
	<polygon points="21,20.293 13.354,12.646 12.646,13.354 20.293,21 16,21 16,22 22,22 22,16 21,16 	"/>
	<polygon points="8.646,12.646 1,20.293 1,16 0,16 0,22 6,22 6,21 1.707,21 9.354,13.354 	"/>
</g>
</svg>
